<?xml version="1.0" encoding="UTF-8"?>
<svg width="512px" height="512px" enable-background="new 0 0 455 455" version="1.1" viewBox="0 0 455 455" xml:space="preserve" xmlns="http://www.w3.org/2000/svg">
<g clip-rule="evenodd" fill="#fff" fill-rule="evenodd">
	<path d="m246.4 204.35v-0.665c-0.136 0.223-0.324 0.446-0.442 0.665h0.442z"/>
	<path d="m0 0v455h455v-455h-455zm141.52 378h-67.506v-203.1h67.506v203.1zm-33.753-230.82h-0.446c-22.645 0-37.323-15.601-37.323-35.101 0-19.928 15.107-35.087 38.211-35.087 23.109 0 37.31 15.159 37.752 35.087 0 19.5-14.643 35.101-38.194 35.101zm277.23 230.82h-67.524v-108.66c0-27.291-9.756-45.92-34.195-45.92-18.664 0-29.755 12.543-34.641 24.693-1.776 4.34-2.24 10.373-2.24 16.459v113.43h-67.537s0.905-184.04 0-203.1h67.537v28.779c8.973-13.807 24.986-33.547 60.856-33.547 44.437 0 77.744 29.02 77.744 91.398v116.46z"/>
</g>
</svg>
