<?xml version="1.0" encoding="iso-8859-1"?>
<!-- Generator: Adobe Illustrator 16.0.0, SVG Export Plug-In . SVG Version: 6.00 Build 0)  -->
<!DOCTYPE svg PUBLIC "-//W3C//DTD SVG 1.1//EN" "http://www.w3.org/Graphics/SVG/1.1/DTD/svg11.dtd">
<svg xmlns="http://www.w3.org/2000/svg" xmlns:xlink="http://www.w3.org/1999/xlink" version="1.1" id="Capa_1" x="0px" y="0px" width="512px" height="512px" viewBox="0 0 96.432 96.432" style="enable-background:new 0 0 96.432 96.432;" xml:space="preserve">
<g>
	<path d="M85.104,8.158C79.84,2.897,72.845,0,65.402,0c-7.441,0-14.438,2.898-19.698,8.158c-7.923,7.924-10.328,19.76-6.129,30.153   l0.125,0.307L3.916,74.402c-0.468,0.469-0.731,1.104-0.732,1.768l0.003,17.761c-0.001,1.38,1.118,2.5,2.5,2.5h11.352   c0.009,0.001,0.015,0.001,0.02,0c1.381,0,2.449-1.118,2.449-2.5c0.001-0.108,0.018-14.723,0.018-14.723l14.891-0.007   c0,0,0.002,0,0.003,0c0.661,0,1.297-0.262,1.767-0.729c0.469-0.469,0.733-1.104,0.732-1.769l0.004-11.139l14.049-14.037   c4.498,2.694,9.535,4.108,14.69,4.108c7.326,0,14.229-2.871,19.443-8.083C95.962,36.694,95.962,19.022,85.104,8.158z    M82.279,26.419l-3.889,3.889c-0.781,0.781-2.048,0.781-2.828,0L62.951,17.697c-0.78-0.781-0.78-2.047,0-2.828l3.89-3.889   c0.78-0.781,2.048-0.781,2.829,0l12.609,12.61C83.062,24.372,83.062,25.638,82.279,26.419z" fill="#FFFFFF"/>
</g>
<g>
</g>
<g>
</g>
<g>
</g>
<g>
</g>
<g>
</g>
<g>
</g>
<g>
</g>
<g>
</g>
<g>
</g>
<g>
</g>
<g>
</g>
<g>
</g>
<g>
</g>
<g>
</g>
<g>
</g>
</svg>
