<?xml version="1.0" encoding="UTF-8"?>
<!DOCTYPE svg  PUBLIC '-//W3C//DTD SVG 1.1//EN'  'http://www.w3.org/Graphics/SVG/1.1/DTD/svg11.dtd'>
<svg width="512px" height="512px" enable-background="new 0 0 96.432 96.432" version="1.1" viewBox="0 0 96.432 96.432" xml:space="preserve" xmlns="http://www.w3.org/2000/svg">
	<path d="m85.104 8.158c-5.264-5.261-12.259-8.158-19.702-8.158-7.441 0-14.438 2.898-19.698 8.158-7.923 7.924-10.328 19.76-6.129 30.153l0.125 0.307-35.784 35.784c-0.468 0.469-0.731 1.104-0.732 1.768l3e-3 17.761c-1e-3 1.38 1.118 2.5 2.5 2.5h11.352c9e-3 1e-3 0.015 1e-3 0.02 0 1.381 0 2.449-1.118 2.449-2.5 1e-3 -0.108 0.018-14.723 0.018-14.723l14.891-7e-3h3e-3c0.661 0 1.297-0.262 1.767-0.729 0.469-0.469 0.733-1.104 0.732-1.769l4e-3 -11.139 14.049-14.037c4.498 2.694 9.535 4.108 14.69 4.108 7.326 0 14.229-2.871 19.443-8.083 10.857-10.858 10.857-28.53-1e-3 -39.394zm-2.825 18.261l-3.889 3.889c-0.781 0.781-2.048 0.781-2.828 0l-12.611-12.611c-0.78-0.781-0.78-2.047 0-2.828l3.89-3.889c0.78-0.781 2.048-0.781 2.829 0l12.609 12.61c0.783 0.782 0.783 2.048 0 2.829z" fill="#fff"/>
</svg>
