<?xml version="1.0" encoding="UTF-8"?>
<svg width="512px" height="512px" enable-background="new 0 0 576.504 576.504" version="1.1" viewBox="0 0 576.504 576.504" xml:space="preserve" xmlns="http://www.w3.org/2000/svg">
		<path d="m7.956 447.37c-0.408 0.814-1.428 1.225-3.06 1.225h-1.836c-2.04-1.225-3.06-2.65-3.06-4.285v-244.19c0-2.04 0.816-3.468 2.448-4.284 1.632-0.408 3.264-0.408 4.896 0l162.79 93.024c1.632 0.814 2.448 2.041 2.448 3.672 0 2.041-0.612 3.264-1.836 3.672l-162.79 151.16zm547.13 67.32c1.225 1.633 1.633 3.264 1.225 4.896-1.225 2.039-2.854 3.063-4.896 3.063h-532.44c-2.856 0-5.916-1.021-9.18-3.063-1.632-0.816-2.448-2.041-2.448-3.672 0-1.633 0.612-2.857 1.836-3.672l207.47-192.78c1.632-1.631 3.468-1.836 5.508-0.611l55.08 31.215c7.752 4.484 15.707 4.484 23.867 0l62.424-36.723c2.449-1.633 4.285-1.428 5.512 0.611l186.04 200.74zm18.973-322.52c1.631 0.816 2.447 2.244 2.447 4.284v258.26c0 2.041-1.021 3.469-3.063 4.285-0.404 0.408-1.02 0.611-1.836 0.611-1.223 0-2.445-0.611-3.672-1.836l-154.83-167.08c-1.223-1.227-1.631-2.448-1.223-3.672 0-1.632 0.609-2.856 1.836-3.672l155.45-91.188c1.225-1.224 2.856-1.224 4.897 0zm-17.137-138.31c5.713 0 10.404 1.836 14.076 5.508s5.508 8.16 5.508 13.464v58.752c0 2.856-1.428 4.284-4.283 4.284-2.449 0.408-4.693 1.428-6.732 3.06l-274.18 160.96c-0.408 0.408-1.225 0.613-2.449 0.613s-2.04-0.205-2.446-0.613l-282.75-160.96c-2.448-1.632-3.672-3.264-3.672-4.896v-61.2c0-5.304 1.836-9.792 5.508-13.464s8.16-5.508 13.464-5.508h537.95z" fill="#fff"/>
</svg>
