<svg width="512" height="512" enable-background="new 0 0 568.034 568.034" viewBox="0 0 568.034 568.034" xmlns="http://www.w3.org/2000/svg"><path d="m550.99.0h-533.94c-8.103.0-14.67 6.567-14.67 14.67v538.69c0 8.104 6.567 14.67 14.67 14.67h177.5v-.129c8.011-.092 14.149-4.577 14.431-12.166.728-19.725.214-39.492.214-58.562-14.296.667-27.944 2.473-41.438 1.695-29.762-1.714-52.632-14.413-64.493-43.556-7.026-17.265-17.613-32.032-34.101-41.886-3.079-1.842-5.771-4.554-8.127-7.308-3.079-3.592-2.503-7.282 2.362-8.268 4.908-.998 10.27-1.695 15.11-.79 19.009 3.568 32.154 15.49 42.216 31.347 19.896 31.371 50.521 40.974 84.976 26.487 1.921-.808 4.363-2.766 4.725-4.553 2.778-13.887 7.968-26.549 18.427-37.65-11.628-2.154-22.399-3.739-32.962-6.188-30.417-7.038-57.742-19.7-77.724-44.848-16.303-20.514-23.758-44.528-27.185-70.086-5.367-40.031-.563-77.503 26.928-109.49 1.389-1.616 2.142-4.927 1.524-6.94-6.885-22.497-5.833-44.805.991-67.051 3.581-11.683 4.578-12.265 16.5-10.637.729.098 1.438.281 2.161.404 23.898 3.954 44.468 15.526 64.731 27.95 2.724 1.671 6.873 2.711 9.866 1.983 48.397-11.744 96.702-11.695 145.09.043 2.809.679 6.561-.288 9.247-1.695 11.016-5.759 21.561-12.454 32.718-17.914 12.98-6.346 26.652-11.12 41.371-10.857 2.576.049 6.561 2.509 7.423 4.786 8.856 23.464 10.723 47.375 3.666 71.794-.753 2.607.367 6.322 1.769 8.892 6.965 12.779 16.689 24.572 21.096 38.127 13.434 41.316 8.538 82.229-9.749 121.06-16.757 35.594-47.834 53.63-84.621 62.933-12.424 3.14-25.153 5.049-38.556 7.681 17.564 18.348 20.318 40.74 20.006 64.192-.324 24.192-.238 48.391-.251 72.589-.006 11.72 5.11 18.195 14.039 18.574-.006.037 188.72.037 188.72.037v-553.36c-.002-8.103-6.568-14.67-14.665-14.67z" fill="#fff"/></svg>